<?xml version="1.0" encoding="UTF-8"?>
<svg id="Livello_1" data-name="Livello 1" xmlns="http://www.w3.org/2000/svg" viewBox="0 0 409.6 409.6">
  <defs>
    <style>
      .cls-1 {
        fill: #fff;
      }
    </style>
  </defs>
  <path class="cls-1" d="M403.7,192.97v23.31c-1.18,4.77-1.02,10.08-1.67,15.04-11.42,87.51-82.94,159.29-170.56,170.56-4.96.64-10.27.49-15.04,1.67-7.73-.32-15.6.43-23.31,0C23.18,394.11-57.22,184.76,64.22,63.68,185.46-57.22,394.27,23.26,403.7,192.97ZM191.41,39.35C73.79,47.29,2.69,178.13,58.29,282.35c58.88,110.37,215.19,118.58,284.51,14.07,76.92-115.96-13.6-266.37-151.39-257.07Z"/>
  <path class="cls-1" d="M168.83,105.36c6.89-1.16,11.2,1.83,16.16,6.01,27.99,23.58,53,56.41,80.8,80.82,7.36,9.03,6.97,16.43-.38,25.28-23.23,27.97-56.66,53.01-80.82,80.8-17.72,16.82-40.61-6.9-23.34-24.12l69.12-69.81-72.85-74.06c-6.29-9.69.14-23.04,11.31-24.93Z"/>
</svg>